<?xml version="1.0" encoding="utf-8"?>
<!-- Generator: Adobe Illustrator 19.0.0, SVG Export Plug-In . SVG Version: 6.00 Build 0)  -->
<svg version="1.1" id="layer" xmlns="http://www.w3.org/2000/svg" xmlns:xlink="http://www.w3.org/1999/xlink" x="0px" y="0px"
	 viewBox="-153 -46 652 652" style="enable-background:new -153 -46 652 652;" xml:space="preserve">
<style type="text/css">
	.st0{clip-path:url(#SVGID_2_);fill-rule:evenodd;clip-rule:evenodd;fill:#017163;}
	.st1{clip-path:url(#SVGID_2_);fill-rule:evenodd;clip-rule:evenodd;fill:#EF7D00;}
	.st2{clip-path:url(#SVGID_2_);fill:#FFFFFF;}
</style>
<g>
	<defs>
		<rect id="SVGID_1_" x="-131.3" y="212.7" width="600" height="125.5"/>
	</defs>
	<clipPath id="SVGID_2_">
		<use xlink:href="#SVGID_1_"  style="overflow:visible;"/>
	</clipPath>
	<path class="st0" d="M-131.3,212.7h75.7c-29.7,5.5-52.2,31.5-52.2,62.8c0,31.3,22.5,57.3,52.2,62.8h-75.7V212.7z M-32.2,212.7h501
		v125.5h-501c29.7-5.5,52.2-31.5,52.2-62.8C20,244.2-2.5,218.2-32.2,212.7"/>
	<path class="st1" d="M-43.6,232.5c4.1,0,7.4,3.3,7.4,7.4c0,4.1-3.3,7.4-7.4,7.4c-4.1,0-7.4-3.3-7.4-7.4
		C-50.9,235.8-47.6,232.5-43.6,232.5"/>
	<path class="st1" d="M-22.6,311.4l0,0.3l-0.3-0.3H-22.6z M-66.3,310.2l0.3,0l-0.3,0.2V310.2z M-64.2,232.2l-0.6,0.3l-0.3,0.3
		l-0.6,0.3l-0.3,0.3l-0.3,0.3l-0.6,0.3l-0.3,0.3l-0.3,0.3l-0.3,0.3l-0.3,0.3l-0.3,0.3l-0.3,0.3L-69,236l-0.3,0.3l-0.3,0.3l-0.3,0.3
		l-0.3,0.3l-0.3,0.3l-0.3,0.3l-0.3,0.3l-0.3,0.3l-0.3,0.3l-0.3,0.3l-0.3,0.3l-0.3,0.3l-0.3,0.3l-0.3,0.3l-0.3,0.3l-0.3,0.3l-0.3,0.3
		l-0.3,0.3l-0.3,0.3l-0.3,0.3l-0.3,0.3l-0.3,0.3l-0.3,0.3l-0.3,0.3l-0.3,0.3l-0.3,0.3l-0.3,0.6l-0.3,0.3l-0.3,0.3l-0.3,0.3l-0.3,0.3
		l-0.3,0.3l-0.3,0.6l-0.3,0.3l-0.3,0.3l-0.3,0.3l-0.3,0.6l-0.3,0.3l-0.3,0.3l-0.3,0.6l-0.3,0.3l-0.3,0.6l-0.3,0.3l-0.3,0.6l-0.3,0.3
		l-0.3,0.6l-0.3,0.6l-0.3,0.3l-0.3,0.6l-0.3,0.6l-0.3,0.6l-0.3,0.6l-0.3,0.6l-0.3,0.6l-0.3,0.9l-0.3,0.6l-0.3,0.9l-0.3,0.9l-0.3,0.9
		l-0.3,0.9l-0.3,0.9l-0.3,1.2l-0.3,1.5l-0.3,1.5l-0.3,2.1l-0.3,3.9v3.3l0.3,3.9l0.3,2.4l0.3,1.5l0.3,1.2l0.3,1.2l0.3,1.2l0.3,0.9
		l0.3,0.9l0.3,0.9l0.3,0.9l0.3,0.6l0.3,0.9l0.3,0.6l0.3,0.6l0.3,0.6l0.3,0.6l0.3,0.6l0.3,0.6l0.3,0.6l0.3,0.6l0.3,0.6l0.3,0.3
		l0.3,0.6l0.3,0.6l0.3,0.3l0.3,0.6l0.3,0.3l0.3,0.6l0.3,0.3l0.3,0.3l0.3,0.6l0.3,0.3l0.3,0.3l0.3,0.6l0.3,0.3l0.3,0.3l0.3,0.3
		l0.3,0.3l0.3,0.3l0.3,0.6l0.3,0.3l0.3,0.3l0.3,0.3l0.3,0.3l0.3,0.3l0.3,0.3l0.3,0.3l0.3,0.3l0.3,0.3l0.3,0.3l0.6,0.3l0.3,0.3
		l0.3,0.3l0.3,0.3l0.3,0.3l0.3,0.3l0.6,0.3l0.3,0.3l0.3,0.3l0.6,0.3l0.3,0.3l0.3,0.3l0.6,0.3l0.3,0.3l0.6,0.3l0.6,0.3l0.3,0.3
		l0.6,0.3l0.6,0.3l0.3,0.3l0.6,0.3l0.6,0.3l0.6,0.3l0.6,0.3l0.6,0.3l0.9,0.3l0.6,0.3l0.6,0.3l0.9,0.3l0.9,0.3l0.9,0.3l0.9,0.3
		l0.9,0.3l1.2,0.3l1.2,0.3l1.5,0.3l1.8,0.3l3,0.3h7.1l3-0.3l1.8-0.3l1.5-0.3l1.2-0.3l1.2-0.3l1.2-0.3l0.9-0.3l0.9-0.3l0.6-0.3
		l0.9-0.3l0.6-0.3l0.9-0.3l0.6-0.3l0.6-0.3l0.6-0.3l0.6-0.3l0.6-0.3l0.6-0.3l0.3-0.3l0.6-0.3l0.6-0.3l0.3-0.3l0.6-0.3l0.3-0.3
		l0.6-0.3l0.3-0.3l0.6-0.3l0.3-0.3l0.6-0.3l0.3-0.3l0.3-0.3l0.3-0.3l0.6-0.3l0.3-0.3l0.3-0.3l0.3-0.3l0.3-0.3l0.3-0.3l0.3-0.3
		l0.6-0.3l0.3-0.3l0.3-0.3l0.3-0.3l0.3-0.3l0.3-0.3l0.3-0.6l0.3-0.3l0.3-0.3l0.3-0.3l0.3-0.3l0.3-0.3l0.3-0.3l0.3-0.3l0.3-0.6
		l0.3-0.3l0.3-0.3l0.3-0.6l0.3-0.3l0.3-0.3l0.3-0.6l0.3-0.3l0.3-0.6l0.3-0.3l0.3-0.6l0.3-0.3l0.3-0.6l0.3-0.6l0.3-0.3l0.3-0.6
		l0.3-0.6l0.3-0.6l0.3-0.6l0.3-0.6l0.3-0.6l0.3-0.6l0.3-0.9l0.3-0.6l0.3-0.9l0.3-0.6l0.3-0.9l0.3-0.9l0.3-1.2l0.3-1.2l0.3-1.2
		l0.3-1.5l0.3-1.5l0.3-2.4v-8.9l-0.3-3l-0.3-1.8l-0.3-1.5l-0.3-1.2l-0.3-0.9l-0.3-1.2l-0.3-0.9l-0.3-0.6l-0.3-0.9l-0.3-0.9l-0.3-0.6
		l-0.3-0.6l-0.3-0.6l-0.3-0.6l-0.3-0.6l-0.3-0.6l-0.3-0.6l-0.3-0.6l-0.3-0.6l-0.3-0.3l-0.3-0.6l-0.3-0.3L-6,250l-0.3-0.3l-0.3-0.6
		l-0.3-0.3l-0.3-0.6l-0.3-0.3l-0.3-0.3l-0.3-0.6l-0.3-0.3l-0.3-0.3l-0.3-0.3l-0.3-0.3l-0.3-0.6l-0.3-0.3l-0.3-0.3l-0.3-0.3l-0.3-0.3
		l-0.3-0.3l-0.3-0.3l-0.3-0.3l-0.3-0.3l-0.3-0.3l-0.3-0.3l-0.3-0.3l-0.3-0.3l-0.3-0.3l-0.3-0.3l-0.3-0.3l-0.3-0.3l-0.3-0.3l-0.3-0.3
		l-0.3-0.3l-0.3-0.3l-0.3-0.3l-0.3-0.3l-0.3-0.3l-0.3-0.3l-0.3-0.3l-0.3-0.3l-0.3-0.3l-0.3-0.3l-0.3-0.3l-0.3-0.3l-0.3-0.3l-0.3-0.3
		l-0.3-0.3l-0.3-0.3l-0.3-0.3l-0.3-0.3l-0.3-0.3l-0.3-0.3l-0.3-0.3l-0.6-0.3L-22,233l-0.3-0.3l-0.6-0.3l-0.3-0.3l-0.6-0.3h-1.8
		l-0.9,0.3l-0.3,0.3l-0.3,0.3l-0.3,0.3l-0.3,0.3l-0.3,0.3l-0.3,0.6l-0.3,0.9l-0.3,0.6l-0.3,0.6l-0.3,0.9l-0.3,1.2l-0.3,1.2v4.2
		l0.3,1.2l0.3,0.6l0.3,0.6l0.3,0.6l0.3,0.3l0.3,0.6l0.3,0.3l0.3,0.3l0.3,0.3l0.3,0.6l0.3,0.3l0.3,0.3l0.3,0.3l0.3,0.3l0.3,0.3
		l0.3,0.3l0.6,0.3l0.3,0.3l0.3,0.3l0.3,0.3l0.3,0.3l0.3,0.3l0.3,0.3l0.3,0.3l0.6,0.3l0.3,0.3l0.3,0.3l0.3,0.3l0.3,0.3l0.3,0.3
		l0.3,0.3l0.3,0.3l0.3,0.3l0.3,0.3l0.3,0.3l0.3,0.3l0.3,0.3l0.3,0.3l0.3,0.3l0.3,0.3l0.3,0.6l0.3,0.3l0.3,0.3l0.3,0.3l0.3,0.6
		l0.3,0.3l0.3,0.3l0.3,0.6l0.3,0.3l0.3,0.6l0.3,0.3l0.3,0.6l0.3,0.6l0.3,0.6l0.3,0.3l0.3,0.6l0.3,0.6l0.3,0.6l0.3,0.9l0.3,0.6
		l0.3,0.6l0.3,0.9l0.3,0.9l0.3,0.9l0.3,0.9l0.3,1.2l0.3,1.2l0.3,1.2l0.3,2.1v9.2l-0.3,2.1l-0.3,1.5l-0.3,1.2l-0.3,1.2l-0.3,0.9
		l-0.3,0.9l-0.3,0.9l-0.3,0.9l-0.3,0.6l-0.3,0.9l-0.3,0.6l-0.3,0.6l-0.3,0.6l-0.3,0.6l-0.3,0.6l-0.3,0.3l-0.3,0.6l-0.3,0.6l-0.3,0.3
		l-0.3,0.6l-0.3,0.3l-0.3,0.6l-0.3,0.3l-0.3,0.6l-0.3,0.3l-0.3,0.3l-0.3,0.3l-0.3,0.6l-0.3,0.3l-0.3,0.3l-0.3,0.3l-0.3,0.3l-0.3,0.3
		l-0.3,0.6l-0.3,0.3L-20,309l-0.3,0.3l-0.3,0.3l-0.3,0.3l-0.3,0.3l-0.3,0.3l-0.3,0.3l-0.3,0.3l-0.6,0.3l0.3-0.3l0.3-0.3l0.3-0.3
		l0.3-0.3l0.3-0.3l0.3-0.3l0.3-0.3l0.3-0.3l0.3-0.3l0.3-0.3l0.3-0.3l0.3-0.3l0.3-0.3l0.3-0.6l0.3-0.3l0.3-0.3l0.3-0.6l0.3-0.3
		l0.3-0.3l0.3-0.6l0.3-0.6l0.3-0.3l0.3-0.6l0.3-0.3l0.3-0.6l0.3-0.6l0.3-0.6l0.3-0.9l0.3-0.6l0.3-0.6l0.3-0.9l0.3-0.9l0.3-0.9
		l0.3-0.9l0.3-1.5l0.3-1.5l0.3-2.7v-5.3l-0.3-2.7l-0.3-1.5l-0.3-1.2l-0.3-1.2l-0.3-0.9l-0.3-1.2l-0.3-0.6l-0.3-0.9l-0.3-0.6
		l-0.3-0.6l-0.3-0.9l-0.3-0.6l-0.3-0.6l-0.3-0.3l-0.3-0.6l-0.3-0.6l-0.3-0.6l-0.3-0.3l-0.3-0.6l-0.3-0.3l-0.3-0.3l-0.3-0.6l-0.3-0.3
		l-0.3-0.3l-0.3-0.6l-0.3-0.3l-0.3-0.3l-0.3-0.3l-0.3-0.3l-0.3-0.6l-0.3-0.3l-0.3-0.3l-0.3-0.3l-0.3-0.3l-0.3-0.3l-0.3-0.3l-0.3-0.3
		l-0.3-0.3l-0.6-0.3l-0.3-0.3l-0.3-0.3l-0.3-0.3l-0.6-0.3l-0.3-0.3l-0.3-0.3l-0.6-0.3l-0.3-0.3l-0.6-0.3l-0.6-0.3L-28,258l-0.6-0.3
		l-0.3-0.3l-0.6-0.3l-0.3-0.3l-0.6-0.3l-0.3-0.3l-0.6-0.3l-0.6-0.3l-0.6-0.3h-2.7l-0.3,0.3l-0.3,0.3l-0.3,0.3l-0.3,0.3l-0.3,0.6
		l-0.3,0.6l-0.3,1.2l-0.3,6.8l-0.3,45.4l-0.3,0.3l-0.3,0.3L-39,312l-0.6,0.3l-0.9,0.3l-0.9,0.3l-1.2,0.3h-2.4l-1.5-0.3l-0.9-0.3
		l-0.6-0.3l-0.6-0.3l-0.6-0.3l-0.3-0.3l-0.3-0.3l-0.3-0.3l-0.3-51.4l-0.3-1.8l-0.3-0.9l-0.3-0.6l-0.3-0.3l-0.3-0.3l-0.3-0.3
		l-0.6-0.3h-1.8l-0.9,0.3l-0.6,0.3l-0.6,0.3l-0.6,0.3l-0.3,0.3l-0.3,0.3l-0.6,0.3l-0.3,0.3l-0.6,0.3l-0.3,0.3l-0.6,0.3l-0.3,0.3
		l-0.6,0.3l-0.3,0.3l-0.6,0.3l-0.3,0.3l-0.6,0.3l-0.3,0.3l-0.3,0.3l-0.3,0.3l-0.6,0.3l-0.3,0.3l-0.3,0.3l-0.3,0.3l-0.3,0.3l-0.3,0.3
		L-66,263l-0.3,0.3l-0.3,0.3l-0.3,0.3l-0.3,0.3l-0.3,0.3l-0.3,0.6l-0.3,0.3l-0.3,0.3l-0.3,0.3l-0.3,0.3l-0.3,0.6l-0.3,0.3l-0.3,0.6
		l-0.3,0.3l-0.3,0.6l-0.3,0.3l-0.3,0.6l-0.3,0.3l-0.3,0.6l-0.3,0.6l-0.3,0.6l-0.3,0.6l-0.3,0.6l-0.3,0.6l-0.3,0.9l-0.3,0.6l-0.3,0.9
		l-0.3,0.9l-0.3,0.9l-0.3,1.2l-0.3,1.2l-0.3,1.5l-0.3,2.1v7.1l0.3,2.1l0.3,1.5l0.3,1.2l0.3,0.9l0.3,0.9l0.3,0.9l0.3,0.9l0.3,0.6
		l0.3,0.9l0.3,0.6l0.3,0.6l0.3,0.6l0.3,0.3l0.3,0.6l0.3,0.6l0.3,0.6l0.3,0.3l0.3,0.6l0.3,0.3l0.3,0.6l0.3,0.3l0.3,0.3l0.3,0.6
		l0.3,0.3l0.3,0.3l0.3,0.3l0.3,0.3l0.3,0.3l0.3,0.3l0.3,0.3l0.3,0.3l0.3,0.6l-0.6-0.3l-0.3-0.3l-0.3-0.3l-0.3-0.3l-0.3-0.3l-0.3-0.3
		l-0.3-0.3l-0.3-0.3l-0.3-0.3l-0.3-0.6l-0.3-0.3l-0.3-0.3l-0.3-0.3l-0.3-0.3l-0.3-0.6l-0.3-0.3l-0.3-0.3l-0.3-0.6l-0.3-0.3l-0.3-0.6
		l-0.3-0.3l-0.3-0.6l-0.3-0.3l-0.3-0.6l-0.3-0.6l-0.3-0.6l-0.3-0.6l-0.3-0.6l-0.3-0.6l-0.3-0.6l-0.3-0.6l-0.3-0.9l-0.3-0.6l-0.3-0.9
		l-0.3-0.9l-0.3-0.9l-0.3-0.9l-0.3-1.2l-0.3-1.5l-0.3-1.8l-0.3-2.7v-5.9l0.3-2.7l0.3-1.5l0.3-1.2l0.3-1.2l0.3-1.2l0.3-0.9l0.3-0.6
		l0.3-0.9l0.3-0.6l0.3-0.9l0.3-0.6l0.3-0.6l0.3-0.6l0.3-0.6l0.3-0.3l0.3-0.6l0.3-0.6l0.3-0.6l0.3-0.3l0.3-0.6l0.3-0.6l0.3-0.3
		l0.3-0.6l0.3-0.3l0.3-0.6l0.3-0.3l0.3-0.3l0.3-0.6l0.3-0.3l0.3-0.3l0.3-0.3l0.3-0.6l0.3-0.3l0.3-0.3l0.3-0.3l0.3-0.3l0.3-0.3
		l0.3-0.3l0.3-0.3l0.3-0.3l0.3-0.3l0.6-0.3l0.3-0.3l0.3-0.3l0.3-0.3l0.3-0.3l0.3-0.3l0.6-0.3l0.3-0.3l0.3-0.3l0.3-0.3l0.3-0.3
		l0.3-0.3l0.6-0.3l0.3-0.3l0.3-0.3l0.3-0.3l0.3-0.3l0.3-0.6l0.3-0.3l0.3-0.3l0.3-0.3l0.3-0.3l0.3-0.6l0.3-0.6l0.3-0.3l0.3-0.6
		l0.3-0.9l0.3-1.2v-3.9l-0.3-1.2l-0.3-1.2l-0.3-0.9l-0.3-0.6l-0.3-0.6l-0.3-0.6l-0.3-0.6l-0.3-0.6l-0.3-0.3l-0.3-0.6l-0.6-0.3
		l-0.3-0.3h-2.7L-64.2,232.2z"/>
	<path class="st2" d="M40.2,310.4c0.4-5.1,0.7-10.3,0.9-15.4c0.2-5.2,0.3-11.6,0.3-19.4c0-6.7-0.1-12.8-0.3-18.4
		c-0.2-5.6-0.5-11.1-0.9-16.5c2.5,0.3,4.4,0.5,5.7,0.6c1.3,0.1,2.4,0.2,3.4,0.2c0.7,0,1.6-0.1,2.7-0.2c1.1-0.1,3-0.3,5.6-0.6
		c-0.3,5-0.6,10.2-0.7,15.5c-0.2,5.4-0.3,11.8-0.3,19.4v4c0,6.3,0.1,11.8,0.3,16.6c0.2,4.8,0.4,9.5,0.7,14.2
		c-2.2-0.2-4.1-0.3-5.6-0.4c-1.5-0.1-2.7-0.1-3.8-0.1c-0.5,0-1.3,0-2.3,0.1C45,310,43.1,310.1,40.2,310.4"/>
	<path class="st2" d="M85.6,302.7c1.1,0.2,2.1,0.4,3,0.5c0.9,0.1,1.9,0.2,2.8,0.2c7.8,0,13.6-2.4,17.5-7.2
		c3.9-4.8,5.9-11.9,5.9-21.4c0-9.7-1.8-16.6-5.4-20.8c-3.6-4.2-9.5-6.3-17.9-6.3c-1.4,0-2.6,0-3.4,0c-0.8,0-1.6,0.1-2.4,0.1
		c0,1.8-0.1,4.3-0.1,7.7c-0.2,10.4-0.2,17.4-0.2,21.1c0,2.7,0,6.2,0.1,10.6C85.5,291.5,85.5,296.7,85.6,302.7 M68,310.4
		c0.3-3.1,0.6-6.5,0.8-10.1c0.2-3.6,0.3-8.3,0.3-13.9v-12.4v-7.3c0-5.9-0.1-10.8-0.3-14.7c-0.2-3.9-0.5-7.6-0.8-11.2
		c1.3,0.1,2.7,0.1,4,0.2c1.4,0,2.8,0.1,4.2,0.1c2.6,0,5.8-0.1,9.6-0.2c3.8-0.1,6.4-0.2,7.6-0.2c8.2,0,14,0.3,17.4,1
		c3.5,0.6,6.4,1.7,8.9,3.2c4.3,2.6,7.6,6.3,9.7,11.1c2.1,4.8,3.2,10.8,3.2,18c0,12.1-3.4,21.2-10.1,27.3c-6.8,6.1-16.9,9.1-30.3,9.1
		c-2.1,0-4.8,0-8.4-0.1c-3.6-0.1-6.1-0.1-7.6-0.1c-1.1,0-2.2,0-3.3,0C71.7,310.2,70,310.3,68,310.4"/>
	<path class="st2" d="M141.5,310.4c0.4-3.2,0.7-6.6,0.9-10.2c0.2-3.5,0.3-7.9,0.3-13.2v-8.2v-10c0-7.3-0.1-13.1-0.3-17.2
		c-0.2-4.1-0.4-7.7-0.8-11c2.6,0.1,5,0.2,7.1,0.2c2,0,3.8,0.1,5.3,0.1c1.4,0,3.3,0,5.8-0.1c2.5-0.1,4.3-0.1,5.4-0.1
		c7.7,0,13.4,1.3,17,4c3.6,2.7,5.4,6.9,5.4,12.6c0,4.3-1.3,7.9-3.9,10.5c-2.6,2.7-6.2,4.2-10.8,4.6v1.1c5.2,0.2,9.2,1.8,12,4.9
		c2.8,3,4.2,7.1,4.2,12.4c0,6.2-2,11-6.1,14.4c-4.1,3.4-9.8,5.2-17.2,5.2c-1.5,0-4.3-0.1-8.1-0.2c-3.9-0.1-6.9-0.2-9.2-0.2
		c-1.3,0-3.4,0.1-6.3,0.3C141.8,310.3,141.6,310.4,141.5,310.4 M158,270c0.2,0,0.5,0,0.9,0.1c0.4,0,0.7,0,0.9,0c3.9,0,6.8-1,8.7-3.1
		c1.9-2,2.8-5.1,2.8-9.3c0-3.3-0.8-5.9-2.5-7.7c-1.7-1.8-4.1-2.7-7.3-2.7c-0.4,0-1.3,0.1-2.6,0.2h-0.3c-0.2,1.9-0.3,3.7-0.4,5.6
		c-0.1,1.9-0.1,3.9-0.1,5.9V270z M158.5,303.3c0.6,0.2,1.2,0.3,1.8,0.4c0.5,0.1,1,0.1,1.4,0.1c3.3,0,5.9-1.2,7.7-3.6
		c1.8-2.4,2.8-5.7,2.8-10c0-4.3-1-7.6-3-9.9c-2-2.3-4.8-3.5-8.5-3.5c-0.5,0-1.3,0.1-2.4,0.2h-0.2v12.6c0,1.9,0,4,0.1,6.3
		C158.3,298.4,158.4,300.8,158.5,303.3"/>
	<path class="st2" d="M202.8,310.4c0.4-5.1,0.7-10.3,0.9-15.4c0.2-5.2,0.3-11.6,0.3-19.4c0-6.7-0.1-12.8-0.3-18.4
		c-0.2-5.6-0.5-11.1-0.9-16.5c2.5,0.3,4.4,0.5,5.7,0.6c1.3,0.1,2.4,0.2,3.4,0.2c0.7,0,1.6-0.1,2.7-0.2c1.1-0.1,3-0.3,5.6-0.6
		c-0.3,5-0.6,10.2-0.7,15.5c-0.2,5.4-0.3,11.8-0.3,19.4v4c0,6.3,0.1,11.8,0.3,16.6c0.2,4.8,0.4,9.5,0.7,14.2
		c-2.2-0.2-4.1-0.3-5.6-0.4c-1.5-0.1-2.7-0.1-3.8-0.1c-0.5,0-1.3,0-2.3,0.1C207.6,310,205.6,310.1,202.8,310.4"/>
	<path class="st2" d="M250.3,310c0.3-2.5,0.6-5.1,0.7-7.7c0.2-2.7,0.2-6,0.2-10v-6.2v-7.6c0-5.6-0.1-10-0.2-13.1
		c-0.1-3.1-0.3-5.9-0.6-8.4c2.1,0.1,4,0.1,5.7,0.2c1.7,0,3.1,0.1,4.3,0.1c1.1,0,2.7,0,4.7-0.1c2,0,3.5-0.1,4.3-0.1
		c6.3,0,10.9,1,13.8,3.1c2.9,2,4.4,5.2,4.4,9.6c0,3.3-1.1,6-3.2,8c-2.1,2.1-5,3.2-8.7,3.5v0.8c4.2,0.2,7.4,1.4,9.7,3.7
		c2.3,2.3,3.4,5.4,3.4,9.4c0,4.7-1.7,8.4-5,11c-3.3,2.6-8,3.9-14,3.9c-1.3,0-3.5,0-6.6-0.2c-3.1-0.1-5.6-0.1-7.4-0.1
		c-1.1,0-2.8,0.1-5.1,0.3C250.6,310,250.4,310,250.3,310 M263.7,279.2c0.2,0,0.4,0,0.7,0c0.3,0,0.6,0,0.7,0c3.2,0,5.5-0.8,7-2.3
		c1.5-1.6,2.3-3.9,2.3-7.1c0-2.6-0.7-4.5-2-5.9c-1.4-1.4-3.3-2.1-5.9-2.1c-0.4,0-1.1,0.1-2.1,0.2h-0.3c-0.2,1.4-0.3,2.9-0.3,4.3
		c-0.1,1.5-0.1,3-0.1,4.5V279.2z M264.2,304.6c0.5,0.1,1,0.3,1.4,0.3c0.4,0.1,0.8,0.1,1.2,0.1c2.7,0,4.8-0.9,6.3-2.7
		c1.5-1.8,2.2-4.4,2.2-7.6c0-3.3-0.8-5.8-2.4-7.5c-1.6-1.8-3.9-2.7-6.9-2.7c-0.4,0-1.1,0-2,0.2h-0.2v9.6c0,1.5,0,3.1,0.1,4.8
		C264,300.8,264.1,302.6,264.2,304.6 M305.1,288.8c0.2,0,0.5,0,0.9,0c2.5,0.1,4.2,0.1,5.3,0.1c1.2,0,3.2-0.1,5.9-0.2h0.4
		c-0.8-2.6-1.7-5.3-2.7-8c-1-2.7-2.2-5.5-3.5-8.4c-1.2,3-2.4,5.8-3.4,8.6C306.9,283.6,305.9,286.3,305.1,288.8 M289.6,310
		c4-9.1,7.9-18.2,11.5-27.1c3.6-9,7-18,10.1-26.9h0.2c1.7,0.2,3,0.3,3.7,0.3c0.6,0,1.7-0.1,3.1-0.2c0.4,0,0.6-0.1,0.8-0.1
		c3.2,9.4,6.5,18.7,9.9,27.6c3.4,8.9,6.8,17.8,10.4,26.4c-1.6-0.1-3.1-0.1-4.3-0.2c-1.3,0-2.3-0.1-3.2-0.1c-1.1,0-2.3,0-3.6,0.1
		c-1.3,0-2.6,0.1-4.1,0.2c-0.4-1.4-1.2-3.8-2.2-7.1c-1-3.3-1.8-5.9-2.4-7.7c-0.5,0-1.7-0.1-3.6-0.1c-1.9-0.1-3.5-0.1-4.7-0.1
		c-0.4,0-1.5,0-3.3,0.1c-1.9,0.1-3.5,0.1-5,0.1c-1,3.1-2.6,7.9-4.9,14.4l-0.2,0.4c-0.9-0.1-1.7-0.1-2.3-0.2c-0.6,0-1.1-0.1-1.5-0.1
		c-0.6,0-1.3,0-2.1,0.1C291.2,309.8,290.4,309.9,289.6,310 M343.2,310c0.3-3.9,0.5-7.8,0.7-11.9c0.1-4.1,0.2-8.9,0.2-14.6
		c0-3.5-0.1-7.5-0.2-12c-0.1-4.5-0.3-9.3-0.5-14.6c1.3,0.1,2.4,0.2,3.1,0.3c0.8,0,1.4,0.1,1.9,0.1c0.6,0,1.2,0,2-0.1
		c0.7-0.1,1.8-0.1,3-0.3c4.7,6.1,9.5,12,14.4,17.7c4.9,5.7,10,11.3,15.2,16.8v-14.6c0-4.2,0-7.7-0.1-10.7c-0.1-3-0.2-6-0.4-9.1
		c0.9,0.1,1.7,0.2,2.3,0.2c0.7,0.1,1.2,0.1,1.7,0.1c0.4,0,1.1,0,2.1-0.1c1-0.1,1.7-0.2,2.2-0.2c-0.4,2.8-0.6,6.7-0.8,11.5
		c-0.2,4.8-0.3,12-0.3,21.4v3.7c0,3.8,0.1,7,0.2,9.5c0.1,2.5,0.2,4.8,0.4,6.9c-1.2-0.2-2.2-0.2-2.8-0.3c-0.7-0.1-1.2-0.1-1.8-0.1
		c-0.5,0-1.1,0-1.8,0.1c-0.7,0-1.6,0.1-2.8,0.3c-4.7-6-9.6-11.9-14.6-17.8c-5-5.8-10.3-11.6-15.7-17.4v21.5c0,1.5,0,3.5,0.1,5.9
		c0.1,2.4,0.1,5,0.2,7.9c-0.9-0.1-1.7-0.2-2.4-0.3c-0.7-0.1-1.2-0.1-1.7-0.1c-0.3,0-0.8,0-1.3,0.1
		C345.1,309.7,344.3,309.8,343.2,310 M415,256.9c-0.3,2.7-0.4,5-0.5,6.9c-0.1,1.9-0.2,3.7-0.2,5.3v11.5l13.4-15.4
		c1.2-1.4,2.3-2.8,3.4-4.2c1.1-1.4,2-2.8,2.9-4.1l0.7,0.1c2.3,0.2,3.7,0.3,4.1,0.3c0.7,0,1.4,0,2.3-0.1c0.9-0.1,2-0.2,3.5-0.3
		c-3.3,3.2-6.6,6.6-9.8,10c-3.3,3.5-6.9,7.3-10.7,11.5c4.1,6.4,8,12.2,11.6,17.5c3.6,5.2,7.1,9.9,10.3,14c-2.6-0.2-4.4-0.2-5.5-0.3
		c-1.1-0.1-1.9-0.1-2.4-0.1c-1,0-2.2,0-3.6,0.1c-1.4,0-3.2,0.1-5.4,0.3c-1.4-3-3.3-6.5-5.9-10.4c-2.5-4-5.5-8.2-8.8-12.6v12
		c0,2.1,0.1,4,0.2,5.8c0.1,1.8,0.2,3.5,0.4,5.2c-1.9-0.2-3.4-0.2-4.5-0.3c-1.1-0.1-2.1-0.1-3-0.1c-0.5,0-1.3,0-2.2,0.1
		c-1,0-2.5,0.1-4.6,0.3c0.3-3.8,0.6-7.5,0.7-11.3c0.2-3.7,0.2-8,0.2-12.7v-2.5c0-5.7-0.1-10.5-0.2-14.6c-0.1-4.1-0.4-8.1-0.7-12
		c2.1,0.2,3.6,0.4,4.5,0.5c1,0.1,1.7,0.1,2.3,0.1c0.9,0,1.8,0,2.9-0.1C411.5,257.2,413,257.1,415,256.9"/>
</g>
</svg>
